<svg width="531" height="318" viewBox="0 0 531 318" fill="none" xmlns="http://www.w3.org/2000/svg">
<path d="M195.115 2.00354C201.56 0.0453714 208.44 0.0453689 214.885 2.00354L407.71 60.5943C415.052 62.8254 421.424 67.4748 425.789 73.7864L524.614 216.685C529.929 224.371 531.847 233.906 529.916 243.05L496.159 402.875C494.377 411.309 489.459 418.751 482.4 423.696L327.676 532.082C321.959 536.086 315.149 538.235 308.169 538.235H101.831C94.8515 538.235 88.0407 536.086 82.324 532.082L-72.3997 423.696C-79.4594 418.751 -84.3773 411.309 -86.1586 402.875L-119.916 243.05C-121.847 233.906 -119.929 224.371 -114.614 216.685L-15.7889 73.7864C-11.4239 67.4748 -5.05211 62.8254 2.29041 60.5943L195.115 2.00354Z" fill="#222222"/>
</svg>
